<svg width="269" height="135" viewBox="0 0 269 135" fill="none" xmlns="http://www.w3.org/2000/svg">
<path d="M204.665 82.9266C206.025 80.5734 207.103 78.6159 208.268 76.7119C217.032 62.3414 225.828 47.9956 234.571 33.6126C239.603 25.3332 244.549 17.0043 249.536 8.70015C249.713 8.40754 249.813 7.99955 250.073 7.8347C250.61 7.48852 251.226 7.26598 251.812 6.99398C251.92 7.62864 252.279 8.35809 252.081 8.87324C251.639 10.0148 250.936 11.0575 250.3 12.1166C236.194 35.698 222.093 59.2834 207.95 82.8442C207.016 84.3979 207.033 85.4076 208.491 86.6934C213.036 90.7033 218.366 91.3627 223.977 90.3571C233.513 88.6551 240.516 82.8689 246.454 75.6651C253.825 66.7304 259.977 56.9673 265.629 46.8828C266.034 46.1616 266.323 45.3374 266.877 44.7604C267.344 44.2782 268.116 44.0887 268.752 43.7713C268.814 44.4761 269.153 45.3085 268.897 45.869C264.522 55.5661 258.551 64.2948 252.283 72.838C248.49 78.0059 244.479 82.9967 239.223 86.784C229.113 94.0703 218.668 94.1033 208.09 87.8762C206.343 86.85 205.529 86.9695 204.661 88.8364C201.145 96.4358 197.505 103.978 193.931 111.552C191.762 116.156 191.878 121.179 191.312 126.071C191.093 127.979 190.952 129.9 190.692 131.808C190.551 132.846 190.316 133.868 188.804 133.687C187.44 133.522 186.82 132.842 186.94 131.503C187.159 129.043 187.324 126.574 187.647 124.126C188.713 116.098 189.886 108.086 190.936 100.058C192.022 91.7501 192.939 83.4212 194.088 75.1211C194.361 73.143 193.985 71.5192 193.117 69.8089C192.035 67.6742 191.138 65.4405 190.221 63.2233C189.989 62.6628 189.981 62.0117 189.87 61.4017C190.064 61.3317 190.254 61.2657 190.448 61.1957C191.667 63.6272 192.89 66.0545 194.348 68.9641C194.786 68.0203 195.071 67.6494 195.129 67.2456C197.848 48.0697 200.852 28.9228 201.219 9.50378C201.257 7.58743 201.162 5.6546 200.963 3.74649C200.761 1.82603 200.013 1.43451 198.596 2.70796C195.385 5.59278 192.051 8.43227 189.308 11.7333C181.643 20.9442 175.995 31.3913 171.587 42.4938C168.823 49.4544 166.294 56.5017 165.488 64.0269C165.017 68.4407 165.1 72.7844 166.521 77.0622C167.715 80.6641 169.942 83.4006 173.058 85.5024C168.785 84.4885 166.41 81.476 164.811 77.6927C163.092 73.6169 162.77 69.3185 162.951 64.9542C162.98 64.2206 162.956 63.487 162.542 62.5144C161.646 63.656 160.807 64.847 159.844 65.9309C158.25 67.7236 156.634 69.5081 154.919 71.1854C153.386 72.6855 151.569 73.2625 149.437 72.3558C147.379 71.4821 146.805 69.6482 146.887 67.7978C147.057 63.9074 147.544 60.0294 147.924 56.1472C148.015 55.2158 148.197 54.2927 148.338 53.3696L147.846 53.1099C147.445 53.6457 147.007 54.1567 146.648 54.7172C143.793 59.1722 140.954 63.6354 138.107 68.0945C136.942 69.9202 135.475 71.1195 132.922 70.2664C132.001 73.2954 131.092 76.2215 130.224 79.164C126.915 90.3571 123.721 101.579 120.262 112.727C119.192 116.172 117.449 119.411 115.978 122.733C115.437 123.953 114.379 124.649 113.156 124.11C112.288 123.726 111.214 122.824 111.057 121.999C110.363 118.311 109.396 114.54 109.561 110.848C110.082 99.333 111.057 87.8349 111.887 76.3327C112.119 73.1512 112.462 69.982 112.755 66.8046C112.565 66.6933 112.375 66.5862 112.181 66.4749C109.855 68.8611 107.623 71.342 105.182 73.6045C103.021 75.6033 100.752 77.5444 98.3106 79.1764C94.5673 81.6779 91.1131 80.0789 90.5471 75.6363C90.0265 71.5522 90.733 67.5464 92.0923 63.6849C92.2948 63.1079 93.0922 62.737 93.617 62.2672C93.6789 62.9183 93.9682 63.6478 93.7657 64.2041C92.2535 68.4118 92.5799 72.7514 92.8278 77.0581C92.9559 79.2629 94.3813 79.9676 96.2737 78.6694C98.8147 76.9262 101.248 74.9769 103.488 72.8668C106.64 69.8996 109.586 66.718 112.582 63.5901C112.97 63.1821 113.259 62.5639 113.35 61.9993C114.561 54.6183 115.734 47.229 116.895 39.8356C117.019 39.0567 116.986 38.2531 117.044 37.1404C115.899 37.3876 115.052 37.5607 114.214 37.7544C107.719 39.2751 101.29 41.3275 94.7077 42.1229C90.8404 42.5886 89.1423 43.998 87.597 47.3032C83.0811 56.955 76.3918 65.2097 69.7356 73.452C60.6169 84.7358 50.4487 94.9811 38.4915 103.24C34.9547 105.684 33.3351 108.338 32.8228 112.484C32.0212 118.946 30.5916 125.334 29.4017 131.746C29.2117 132.764 29.3356 134.066 27.6416 134.009C25.9848 133.951 25.146 133.23 25.0593 131.511C24.7453 125.408 24.328 119.312 24.0263 113.209C23.8941 110.518 23.9768 110.493 21.4068 110.852C18.0849 111.317 14.858 111.276 11.6973 109.863C8.67698 108.515 6.93753 105.523 8.23076 102.523C9.00752 100.722 10.6354 99.2671 11.9865 97.7505C12.2551 97.4496 12.9988 97.5692 13.5235 97.4909L13.7838 97.9854C13.1516 98.7519 12.5567 99.5556 11.8791 100.277C10.2512 102.012 10.0322 104.081 10.5115 106.248C11.0775 108.82 12.788 110.093 15.4695 109.842C17.585 109.64 19.6715 109.146 21.7745 108.795C23.4727 108.511 24.0635 107.53 24.2412 105.816C25.3361 95.2325 26.336 84.6328 27.7903 74.0949C29.2695 63.351 31.4469 52.7019 32.9095 41.958C34.0086 33.8723 34.6325 25.7124 35.1118 17.5648C35.2729 14.8366 34.5457 11.9806 33.8144 9.2936C33.2112 7.08877 31.7898 6.52829 29.8727 7.84294C26.7863 9.96123 23.6503 12.1825 21.1217 14.9066C15.4489 21.0183 11.594 28.3375 8.48692 36.0194C4.95017 44.781 2.10341 53.7322 2.00838 63.314C1.95054 69.4174 2.63227 75.3972 5.4625 80.9279C6.13597 82.2425 7.09866 83.4088 8.15638 84.979C5.64017 83.4335 4.28496 81.3688 3.30161 79.0816C0.0582066 71.4862 -0.648318 63.5324 0.541618 55.4384C2.68185 40.8742 7.63579 27.3814 16.6182 15.5495C19.3244 11.9847 22.3902 8.84851 26.3112 6.4335C30.2033 4.0391 37.1983 7.60804 37.942 11.8611C38.9047 17.3629 38.9625 22.8399 38.2477 28.2757C36.4298 42.0198 34.2234 55.7145 32.3476 69.4504C30.7941 80.8083 29.4843 92.1993 28.0961 103.582C28.0093 104.303 28.1539 105.053 28.1911 105.787C31.0089 105.725 32.6864 104.353 33.2236 101.756C35.6034 90.2335 38.9336 78.9785 42.9992 67.9503C48.8787 52.0137 56.4645 36.9673 66.9136 23.4704C70.7437 18.525 75.1812 14.2349 81.0317 11.7168C84.7048 10.1343 88.3118 9.63565 92.018 12.1001C94.8276 13.967 96.2365 16.3573 96.3563 19.5842C96.5463 24.7562 95.2077 29.6481 93.4434 34.4451C92.6915 36.4892 91.8692 38.5086 90.8859 41.0266C92.5303 40.8206 93.807 40.8082 95.0052 40.4868C102.046 38.6034 109.061 36.6335 116.098 34.7336C117.44 34.3709 117.883 33.5508 118.102 32.2362C118.911 27.3608 119.841 22.5061 120.754 17.6472C120.857 17.1073 121.163 16.6046 121.374 16.0812C121.589 16.1018 121.804 16.1265 122.018 16.1471C122.08 16.8683 122.27 17.606 122.188 18.3148C121.713 22.4072 121.163 26.4913 120.663 30.5795C120.366 33.011 120.626 33.217 123.064 32.537C129.489 30.7402 135.893 28.8692 142.338 27.1424C152.436 24.4389 162.547 21.7766 172.682 19.2256C174.367 18.8011 176.268 18.7352 177.974 19.0402C179.499 19.3122 180.21 18.8918 180.962 17.7214C184.511 12.2031 188.663 7.16707 193.646 2.87693C195.642 1.1584 197.695 -0.951645 200.777 0.466039C203.868 1.88784 204.07 4.73558 204.157 7.62864C204.496 19.0649 203.356 30.4064 201.922 41.7272C200.695 51.3996 199.381 61.0638 198.001 70.7156C197.633 73.2831 198.05 75.4137 199.889 77.3301C201.48 78.9868 202.889 80.8207 204.669 82.9225L204.665 82.9266ZM178.251 21.5582C177.235 21.4882 176.557 21.3109 175.929 21.4222C173.367 21.8755 170.785 22.2753 168.277 22.9512C152.738 27.1383 137.223 31.4119 121.684 35.6032C120.333 35.9658 119.705 36.7118 119.527 37.9935C118.672 44.2494 117.676 50.493 116.986 56.7695C115.457 70.695 114.003 84.6287 112.668 98.5706C111.982 105.75 111.549 112.962 112.97 120.128C113.106 120.813 113.391 121.468 113.805 122.745C114.718 121.229 115.461 120.318 115.858 119.271C117.478 114.969 119.184 110.687 120.51 106.294C124.225 94.0085 127.795 81.6779 131.356 69.3432C132.616 64.9789 134.104 60.7671 137.046 57.1858C138.698 55.1746 140.347 53.5427 143.334 54.4081C143.958 54.5894 145.181 53.9218 145.627 53.2954C146.974 51.3955 147.99 49.2607 149.308 47.3403C149.759 46.6809 150.734 46.3801 151.469 45.9185C151.676 46.7633 152.147 47.6494 152.031 48.4489C151.779 50.2086 151.06 51.9024 150.841 53.6622C150.23 58.5458 149.689 63.4458 149.329 68.35C149.255 69.3721 150.065 70.4601 150.465 71.5192C151.544 71.0123 152.907 70.7609 153.651 69.9491C156.337 67.023 158.82 63.9156 161.365 60.866C162.914 59.0073 164.137 57.0374 164.604 54.5606C166.03 47.0229 168.736 39.8974 172.124 33.0398C173.971 29.2978 176.045 25.667 178.243 21.5582H178.251ZM83.2711 40.1653C86.8616 41.1874 86.8864 41.1997 88.1176 38.1253C89.2373 35.3229 90.3942 32.5247 91.3486 29.6604C92.7947 25.3414 93.8318 20.9277 93.1831 16.3202C92.6956 12.8625 91.204 11.6756 87.7086 11.9229C83.7793 12.199 80.5029 14.1071 77.4123 16.3243C70.6776 21.1667 66.1203 27.9089 61.7118 34.7171C49.6348 53.3737 41.863 73.823 36.6653 95.319C36.1571 97.4208 35.7108 99.535 35.0911 102.288C36.31 101.542 37.0041 101.188 37.6197 100.726C48.6101 92.4259 58.0511 82.5598 66.6864 71.9107C73.4376 63.586 80.1021 55.1829 84.7585 45.4239C85.7143 43.4183 85.2185 41.6654 83.2711 40.1653ZM197.922 77.5444C197.679 77.6186 197.435 77.6927 197.187 77.7669C196.03 85.8774 194.456 93.9343 194.162 102.77C194.774 102.082 194.989 101.921 195.096 101.707C197.753 96.4441 200.422 91.1896 203.025 85.898C203.298 85.3458 203.479 84.3732 203.186 83.9816C201.517 81.7686 199.691 79.675 197.918 77.5403L197.922 77.5444ZM134.678 67.8184C134.93 67.942 135.182 68.0657 135.434 68.1893C135.711 68.0286 136.091 67.9379 136.248 67.6989C138.76 63.9363 141.276 60.1777 143.706 56.3615C144.346 55.356 143.689 54.6966 142.648 54.882C141.826 55.0304 140.867 55.4219 140.347 56.0277C139.289 57.2641 138.293 58.6323 137.628 60.1036C136.5 62.6092 135.649 65.2385 134.678 67.8143V67.8184ZM28.1457 122.527C28.3853 122.543 28.6208 122.556 28.8605 122.572C29.7446 117.784 30.6247 112.995 31.5502 107.971C27.9887 108.771 27.6623 109.137 27.6912 112.014C27.716 114.68 27.7738 117.347 27.8606 120.013C27.8854 120.854 28.0465 121.686 28.1457 122.527Z" fill="black"/>
</svg>
