<svg width="619" height="83" viewBox="0 0 619 83" fill="none" xmlns="http://www.w3.org/2000/svg">
<g clip-path="url(#clip0_116_450)">
<path d="M34.7718 26.2709C33.7657 26.2709 32.9546 27.082 32.9546 28.0818C32.9546 29.0816 33.7657 29.8927 34.7718 29.8927C35.7778 29.8927 36.5827 29.0816 36.5827 28.0818C36.5827 27.082 35.7716 26.2709 34.7718 26.2709ZM44.1973 25.3843C42.7071 25.3843 41.4998 26.5916 41.4998 28.0818C41.4998 29.572 42.7071 30.7793 44.1973 30.7793C45.6875 30.7793 46.8885 29.572 46.8885 28.0818C46.8885 26.5916 45.6813 25.3843 44.1973 25.3843Z" fill="#1D1D1B"/>
<path d="M41.5 0C18.5807 0 0 18.5807 0 41.4937C0 64.4067 18.5807 83 41.5 83C64.4193 83 83 64.413 83 41.4937C83 18.5744 64.4193 0 41.5 0ZM46.8887 20.4419C50.6552 20.4419 53.7048 23.4978 53.7048 27.258C53.7048 31.0181 50.6552 34.0803 46.8887 34.0803C43.1223 34.0803 40.0727 31.0244 40.0727 27.258C40.0727 23.4915 43.1286 20.4419 46.8887 20.4419ZM32.8164 23.284C35.3002 23.284 37.306 25.2961 37.306 27.7798C37.306 30.2636 35.3002 32.2694 32.8164 32.2694C30.3327 32.2694 28.3269 30.2573 28.3269 27.7798C28.3269 25.3024 30.339 23.284 32.8164 23.284ZM40.8209 63.212C18.3166 63.212 17.5369 43.5561 18.3543 40.6071C19.2032 37.5449 21.3159 36.5577 22.3408 36.1742C27.7987 34.1369 30.0749 39.3181 40.8209 39.3118C51.5669 39.3181 53.8431 34.1369 59.2947 36.1742C60.3259 36.5577 62.4386 37.5449 63.2812 40.6071C64.0986 43.5561 63.3189 63.212 40.8209 63.212Z" fill="#26B3E8"/>
<path d="M36.5827 28.0819C36.5827 29.0817 35.7716 29.8928 34.7718 29.8928C33.772 29.8928 32.9546 29.0817 32.9546 28.0819C32.9546 27.0821 33.7657 26.271 34.7718 26.271C35.7778 26.271 36.5827 27.0821 36.5827 28.0819Z" fill="white"/>
<path d="M36.5827 28.0819C36.5827 29.0817 35.7716 29.8928 34.7718 29.8928C33.772 29.8928 32.9546 29.0817 32.9546 28.0819C32.9546 27.0821 33.7657 26.271 34.7718 26.271C35.7778 26.271 36.5827 27.0821 36.5827 28.0819Z" fill="#1D1D1B"/>
<path d="M36.5827 28.0819C36.5827 29.0817 35.7716 29.8928 34.7718 29.8928C33.772 29.8928 32.9546 29.0817 32.9546 28.0819C32.9546 27.0821 33.7657 26.271 34.7718 26.271C35.7778 26.271 36.5827 27.0821 36.5827 28.0819Z" fill="#1D1D1B"/>
<path d="M46.8887 28.0818C46.8887 29.572 45.6814 30.7793 44.1975 30.7793C42.7136 30.7793 41.5 29.572 41.5 28.0818C41.5 26.5916 42.7073 25.3843 44.1975 25.3843C45.6877 25.3843 46.8887 26.5916 46.8887 28.0818Z" fill="white"/>
<path d="M46.8887 28.0818C46.8887 29.572 45.6814 30.7793 44.1975 30.7793C42.7136 30.7793 41.5 29.572 41.5 28.0818C41.5 26.5916 42.7073 25.3843 44.1975 25.3843C45.6877 25.3843 46.8887 26.5916 46.8887 28.0818Z" fill="#1D1D1B"/>
</g>
<g clip-path="url(#clip1_116_450)">
<path d="M182.874 28.332V30.4278C180.941 30.8743 179.008 33.5777 177.447 37.6205L165.253 69.0945H159.305L150.532 45.1851L141.164 69.0945H135.216L122.428 37.6329C120.792 33.6645 118.933 30.8867 117 30.4402V28.3444H140.866V30.4402C136.851 30.8867 135.588 33.5157 136.926 37.4841L142.576 54.2752L152.168 28.3444H156.703L166.517 53.5931L170.681 41.4524C173.06 34.483 169.417 31.0355 166.517 30.4402V28.3444H182.874V28.332Z" fill="#1E1E1E"/>
<path d="M224.064 59.062C218.488 67.532 211.574 69.9998 204.585 69.9998C193.655 69.9998 183.469 64.01 183.469 49.6868C183.469 35.3635 192.763 27.4268 206.518 27.4268C221.09 27.4268 224.436 36.9384 223.767 47.5042H197.893C198.265 58.6652 203.321 62.2615 209.864 62.2615C213.581 62.2615 218.116 61.133 221.537 57.5367L224.064 59.0372V59.062ZM197.968 43.4738H211.053C211.276 35.0038 209.12 31.3331 205.403 31.3331C201.09 31.3331 198.488 36.3556 197.968 43.4738Z" fill="#1E1E1E"/>
<path d="M275.663 47.4422C275.663 61.6043 266.37 69.9998 253.433 69.9998C248.451 69.9998 243.693 69.0201 239.901 66.9243L234.176 69.0945H232.094V24.1405C232.094 20.5442 230.607 17.3943 226.89 16.6502V14.5544L243.767 12.0122H246.072V35.1651C248.674 30.3659 253.061 27.4516 258.86 27.4516C267.931 27.4516 275.663 34.5698 275.663 47.4546V47.4422ZM261.239 49.9844C261.239 39.4931 258.637 34.4706 253.804 34.4706C248.972 34.4706 246.072 39.3443 246.072 47.5042V63.1668C248.377 65.1138 250.83 65.9446 253.061 65.9446C257.968 65.9446 261.239 62.0507 261.239 49.9844Z" fill="#1E1E1E"/>
<path d="M359.679 66.9987V69.0945H336.035V66.9987C339.604 66.2546 340.496 65.3494 340.496 61.753V43.015C340.496 37.0996 339.009 34.4706 334.995 34.4706C329.567 34.4706 326.742 39.4186 326.742 47.5042V61.7406C326.742 65.337 327.931 66.2422 331.5 66.9863V69.0821H308.303V66.9863C311.872 66.2422 312.764 65.337 312.764 61.7406V43.0026C312.764 37.0872 311.277 34.4582 307.262 34.4582C301.834 34.4582 299.009 39.4062 299.009 47.4918V61.7282C299.009 65.3246 300.199 66.2298 303.767 66.9739V69.0697H279.827V66.9739C284.288 66.2298 285.031 65.3246 285.031 61.7282V39.8527C285.031 36.2563 283.544 33.1065 279.827 32.3624V30.2666L296.704 27.7244H298.637V35.8223H298.935C301.76 30.5766 306.816 27.4268 313.805 27.4268C320.794 27.4268 324.883 30.8743 326.147 36.7152C328.898 30.9487 334.177 27.4268 341.537 27.4268C350.98 27.4268 354.474 33.1189 354.474 42.4073V61.7406C354.474 65.337 355.218 66.2422 359.679 66.9863V66.9987Z" fill="#1E1E1E"/>
<path d="M362.653 49.4633C362.653 36.3554 372.69 27.439 385.85 27.439C399.01 27.439 407.486 35.6113 407.486 47.9752C407.486 61.0832 397.449 70.012 384.363 70.012C371.277 70.012 362.653 61.8396 362.653 49.4757V49.4633ZM392.765 50.2818C392.765 38.1411 390.311 31.3205 384.437 31.3205C378.936 31.3205 377.374 37.2358 377.374 47.0575C377.374 59.1982 379.828 66.0932 385.701 66.0932C391.203 66.0932 392.765 60.1779 392.765 50.2818Z" fill="#1E1E1E"/>
<path d="M464.215 66.9985V69.0943H440.572V66.9985C444.141 66.2544 445.033 65.3492 445.033 61.7528V43.0148C445.033 37.0994 443.1 34.4704 439.085 34.4704C433.658 34.4704 430.832 39.4184 430.832 47.504V61.7404C430.832 65.3368 432.022 66.242 435.591 66.9861V69.0819H411.65V66.9861C416.111 66.242 416.854 65.3368 416.854 61.7404V39.8649C416.854 36.2686 415.367 33.1187 411.65 32.3746V30.2788L428.527 27.7366H430.461V35.8345H430.758C433.583 30.5888 438.639 27.439 445.628 27.439C455.07 27.439 459.011 33.1311 459.011 42.4195V61.7528C459.011 65.3492 459.754 66.2544 464.215 66.9985Z" fill="#1E1E1E"/>
<path d="M467.933 67.2961V56.0607H470.237C472.914 62.9557 479.383 66.2544 483.992 66.2544C487.412 66.2544 490.238 64.3075 490.238 61.0088C490.238 58.913 488.899 57.1148 483.844 55.3167L480.721 54.1882C472.765 51.4103 468.304 47.9628 468.304 40.7702C468.304 32.3746 474.996 27.439 485.033 27.439C491.799 27.439 498.044 29.4603 499.308 30.0556V40.0261H497.004C494.178 34.706 489.717 31.1841 484.736 31.1841C480.944 31.1841 479.085 33.2055 479.085 35.9089C479.085 38.2279 480.721 39.9517 485.479 41.6754L488.676 42.8039C497.152 45.805 501.018 49.1037 501.018 56.0731C501.018 64.7663 494.03 70.012 483.397 70.012C476.632 70.012 469.643 68.2138 467.933 67.3085V67.2961Z" fill="#1E1E1E"/>
<path d="M536.484 61.604C534.105 64.6051 529.123 69.9996 521.539 69.9996C513.956 69.9996 509.42 65.0515 509.42 57.5613V34.1852H504.216V29.3859C510.759 28.6419 512.543 27.5134 519.978 15.5215H523.398V28.3318H533.807L532.841 34.1728H523.398V57.1024C523.398 61.604 525.108 63.0177 527.562 63.0177C529.792 63.0177 531.354 61.8892 533.956 59.6446L536.484 61.5916V61.604Z" fill="#1E1E1E"/>
<path d="M577.897 59.062C572.321 67.532 565.406 69.9998 558.417 69.9998C547.488 69.9998 537.302 64.01 537.302 49.6868C537.302 35.3635 546.596 27.4268 560.35 27.4268C574.923 27.4268 578.269 36.9384 577.6 47.5042H551.726C552.097 58.6652 557.153 62.2615 563.696 62.2615C567.414 62.2615 571.949 61.133 575.369 57.5367L577.897 59.0372V59.062ZM551.8 43.4738H564.886C565.109 35.0038 562.953 31.3331 559.235 31.3331C554.923 31.3331 552.321 36.3556 551.8 43.4738Z" fill="#1E1E1E"/>
<path d="M619 33.0568C619 35.227 618.182 38.3024 616.695 41.0803L611.639 38.6869C609.632 37.7072 608.219 37.3352 606.881 37.3352C603.015 37.3352 601.825 40.1874 601.825 43.4117V61.7653C601.825 65.3617 603.015 66.2669 607.327 67.011V69.1068H582.643V67.011C587.104 66.2669 587.847 65.3617 587.847 61.7653V39.8898C587.847 36.2935 586.36 33.1436 582.643 32.3995V30.3037L599.52 27.7615H601.453V37.1243H601.751C604.055 31.4322 608.07 27.4639 612.977 27.4639C617.141 27.4639 619 29.7085 619 33.0816V33.0568Z" fill="#1E1E1E"/>
</g>
<defs>
<clipPath id="clip0_116_450">
<rect width="83" height="83" fill="white"/>
</clipPath>
<clipPath id="clip1_116_450">
<rect width="502" height="58" fill="white" transform="translate(117 12)"/>
</clipPath>
</defs>
</svg>
